<svg xmlns="http://www.w3.org/2000/svg" viewBox="0 0 278.23469 174.52427"><defs><style>.a{fill:#f8f9fa;}</style></defs><path class="a" d="M278.2923,542.5293c-10.94632.209-13.98678.17951-22.54084.08471,16.56212-15.314,43.58837-39.68785,49.17228-59.48276,3.05615-11.69061-1.22813-21.65334-12.01656-27.90991-19.08384-11.35059-50.952-6.70575-73.79988-3.36648-.3382,2.42529-.64661,4.55792-.92822,6.42712-5.98371.6178-12.11756,1.436-18.42975,2.49176-1.66663,12.23847-2.79315,16.996-4.5459,26.92383,13.83325-3.3363,53.61237-13.57886,49.304,9.18274-13.23853,21.62744-35.15723,39.32733-55.24836,56.92566-.43951,7.69537-.56713,17.88922-1.13623,24.7168,25.66657-.2276,66.06372-.23816,94.05909,0,.30352-4.5174.59924-8.50129.88732-11.98005q8.33781.03982,16.4.10346c.5867-9.48264,1.43964-17.338,1.9602-25.225C291.52026,542.43123,290.1131,542.26138,278.2923,542.5293Zm-2.97437,21.57562c-20.0675-.03967-44.14111.01819-59.37481.15826.55529-6.66742.26373-6.78546.69274-14.29907,14.60572-13.04584,44.23645-42.00665,45.89606-63.58118,1.02127-16.468-30.51062-15.57446-39.09552-13.94409.72266-4.14,1.60205-8.54724,2.33551-12.93426,14.05438-.60034,29.45364-.12995,41.50886,7.10524,8.04376,4.80108,13.231,11.64911,13.28715,20.67388.11762,10.81238-5.99357,20.47155-12.76265,29.19635-11.46558,14.42074-23.48125,26.0134-38.63779,39.77434,8.8191.0968,11.8553.12785,23.12178-.08695,12.125-.27479,13.56894-.10058,23.7332-1.13668Q275.79038,558.74415,275.31793,564.10492Z" transform="translate(-188.12286 -415.52863)"/><path class="a" d="M463.31866,506.24316q-6.08414-13.53789-21.971-24.98449a62.01052,62.01052,0,0,0-14.70508-7.90412l-.00141.00391a52.95864,52.95864,0,0,0,2.96692-17.00659q0-20.62939-17.2207-31.55664-14.6001-9.26514-36.54-9.2666H291.22919l-13.46192,22.02929h84.53125q15.55811,0,23.07715,5.76953,8.39209,6.55518,8.39258,21.5918,0,9.17871-6.99316,22.90234-7.78272,15.561-24.69532,26.1377-16.91454,10.57764-34.13574,10.57715l26.83691-75.70215-47.61071.05933c11.33746,28.77972,6.29785,49.87231-38.63831,88.85107l51.89453.77808c2.84278,0,5.65583-.09186,8.4455-.25592l-.00092.00006a36.33194,36.33194,0,0,0,2.45868,9.71759q5.995,15.308,25.28687,29.2063,16.66709,12.00676,35.58648,12.81567,21.559.88045,32.9549-14.93768,7.81732-10.85148,6.46423-25.72388,19.32523.9916,28.47077-11.70367Q470.7204,522.889,463.31866,506.24316Zm-82.85577,54.29737q-10.26424,7.36642-19.62549.62146a14.51148,14.51148,0,0,1-5.59948-7.4809,9.39982,9.39982,0,0,1,1.26556-8.78546,16.85327,16.85327,0,0,1,4.12121-3.92645q5.65422-4.11228,11.19043-8.20606,6.86775-4.7491,11.95374-5.8255a15.99441,15.99441,0,0,1,12.77173,3.06l13.26343,9.55481Zm58.24616-47.35376a13.09441,13.09441,0,0,1-3.59058,3.33856q-8.9566,6.1528-12.62927,7.06244-6.38818,1.53983-14.04743-3.979L400.14252,513.63l19.42462-13.802q9.16039-6.43569,16.82159-.91778a10.02307,10.02307,0,0,1,4.20032,6.58117A9.79527,9.79527,0,0,1,438.70905,513.18677Z" transform="translate(-188.12286 -415.52863)"/></svg>